<mxfile host="65bd71144e">
    <diagram id="JgmgCKd6XLoXhJxxk2tt" name="Pagina-1">
        <mxGraphModel dx="513" dy="629" grid="1" gridSize="10" guides="1" tooltips="1" connect="1" arrows="1" fold="1" page="1" pageScale="1" pageWidth="827" pageHeight="1169" math="0" shadow="0">
            <root>
                <mxCell id="0"/>
                <mxCell id="1" parent="0"/>
                <mxCell id="21" value="Configure Development System" style="strokeWidth=1;shadow=0;dashed=0;align=center;html=1;shape=mxgraph.mockup.containers.window;align=left;verticalAlign=top;spacingLeft=8;strokeColor2=#008cff;strokeColor3=#c4c4c4;fontColor=#666666;mainText=;fontSize=17;labelBackgroundColor=none;whiteSpace=wrap;" vertex="1" parent="1">
                    <mxGeometry x="50" y="90" width="530" height="550" as="geometry"/>
                </mxCell>
                <mxCell id="22" value="Confirm" style="strokeWidth=1;shadow=0;dashed=0;align=center;html=1;shape=mxgraph.mockup.buttons.button;strokeColor=#2D7600;fontColor=#ffffff;mainText=;buttonStyle=round;fontSize=17;fontStyle=1;fillColor=#60a917;whiteSpace=wrap;" vertex="1" parent="1">
                    <mxGeometry x="350" y="567" width="150" height="50" as="geometry"/>
                </mxCell>
                <mxCell id="23" value="Go back" style="strokeWidth=1;shadow=0;dashed=0;align=center;html=1;shape=mxgraph.mockup.buttons.button;strokeColor=#B20000;mainText=;buttonStyle=round;fontSize=17;fontStyle=1;fillColor=#e51400;whiteSpace=wrap;fontColor=#ffffff;" vertex="1" parent="1">
                    <mxGeometry x="130" y="567" width="150" height="50" as="geometry"/>
                </mxCell>
                <mxCell id="24" value="min layers :" style="text;html=1;strokeColor=none;fillColor=none;align=left;verticalAlign=middle;whiteSpace=wrap;rounded=0;" vertex="1" parent="1">
                    <mxGeometry x="80" y="150" width="210" height="30" as="geometry"/>
                </mxCell>
                <mxCell id="25" value="&lt;i&gt;&lt;font&gt;1&lt;/font&gt;&lt;/i&gt;" style="rounded=0;whiteSpace=wrap;html=1;fontColor=#000000;" vertex="1" parent="1">
                    <mxGeometry x="290" y="157.5" width="190" height="15" as="geometry"/>
                </mxCell>
                <mxCell id="26" value="step layers&amp;nbsp; :" style="text;html=1;strokeColor=none;fillColor=none;align=left;verticalAlign=middle;whiteSpace=wrap;rounded=0;" vertex="1" parent="1">
                    <mxGeometry x="80" y="190" width="210" height="30" as="geometry"/>
                </mxCell>
                <mxCell id="27" value="&lt;i&gt;&lt;font&gt;3&lt;/font&gt;&lt;/i&gt;" style="rounded=0;whiteSpace=wrap;html=1;fontColor=#000000;" vertex="1" parent="1">
                    <mxGeometry x="290" y="197.5" width="190" height="15" as="geometry"/>
                </mxCell>
                <mxCell id="28" value="Segregation system IP address :" style="text;html=1;strokeColor=none;fillColor=none;align=left;verticalAlign=middle;whiteSpace=wrap;rounded=0;" vertex="1" parent="1">
                    <mxGeometry x="80" y="392" width="210" height="30" as="geometry"/>
                </mxCell>
                <mxCell id="29" value="&lt;i&gt;&lt;font&gt;192.168.1.14&lt;/font&gt;&lt;/i&gt;" style="rounded=0;whiteSpace=wrap;html=1;fontColor=#000000;" vertex="1" parent="1">
                    <mxGeometry x="290" y="399.5" width="190" height="15" as="geometry"/>
                </mxCell>
                <mxCell id="30" value="Production system IP address :" style="text;html=1;strokeColor=none;fillColor=none;align=left;verticalAlign=middle;whiteSpace=wrap;rounded=0;" vertex="1" parent="1">
                    <mxGeometry x="80" y="432" width="210" height="30" as="geometry"/>
                </mxCell>
                <mxCell id="31" value="&lt;i style=&quot;border-color: var(--border-color);&quot;&gt;&lt;font style=&quot;border-color: var(--border-color);&quot;&gt;192.168.1.13&lt;/font&gt;&lt;/i&gt;" style="rounded=0;whiteSpace=wrap;html=1;fontColor=#000000;" vertex="1" parent="1">
                    <mxGeometry x="290" y="439.5" width="190" height="15" as="geometry"/>
                </mxCell>
                <mxCell id="32" value="Messaging system IP address :" style="text;html=1;strokeColor=none;fillColor=none;align=left;verticalAlign=middle;whiteSpace=wrap;rounded=0;" vertex="1" parent="1">
                    <mxGeometry x="80" y="472" width="210" height="30" as="geometry"/>
                </mxCell>
                <mxCell id="33" value="&lt;i style=&quot;border-color: var(--border-color);&quot;&gt;&lt;font style=&quot;border-color: var(--border-color);&quot;&gt;192.168.1.16&lt;/font&gt;&lt;/i&gt;" style="rounded=0;whiteSpace=wrap;html=1;fontColor=#000000;" vertex="1" parent="1">
                    <mxGeometry x="290" y="479.5" width="190" height="15" as="geometry"/>
                </mxCell>
                <mxCell id="34" value="max layers :" style="text;html=1;strokeColor=none;fillColor=none;align=left;verticalAlign=middle;whiteSpace=wrap;rounded=0;" vertex="1" parent="1">
                    <mxGeometry x="80" y="227" width="210" height="30" as="geometry"/>
                </mxCell>
                <mxCell id="35" value="&lt;i&gt;60&lt;/i&gt;" style="rounded=0;whiteSpace=wrap;html=1;fontColor=#000000;" vertex="1" parent="1">
                    <mxGeometry x="290" y="234.5" width="190" height="15" as="geometry"/>
                </mxCell>
                <mxCell id="36" value="min neurons :" style="text;html=1;strokeColor=none;fillColor=none;align=left;verticalAlign=middle;whiteSpace=wrap;rounded=0;" vertex="1" parent="1">
                    <mxGeometry x="80" y="267" width="210" height="30" as="geometry"/>
                </mxCell>
                <mxCell id="37" value="&lt;i&gt;&lt;font&gt;10&lt;/font&gt;&lt;/i&gt;" style="rounded=0;whiteSpace=wrap;html=1;fontColor=#000000;" vertex="1" parent="1">
                    <mxGeometry x="290" y="274.5" width="190" height="15" as="geometry"/>
                </mxCell>
                <mxCell id="38" value="step neurons :" style="text;html=1;strokeColor=none;fillColor=none;align=left;verticalAlign=middle;whiteSpace=wrap;rounded=0;" vertex="1" parent="1">
                    <mxGeometry x="80" y="306" width="210" height="30" as="geometry"/>
                </mxCell>
                <mxCell id="39" value="&lt;i&gt;&lt;font&gt;5&lt;/font&gt;&lt;/i&gt;" style="rounded=0;whiteSpace=wrap;html=1;fontColor=#000000;" vertex="1" parent="1">
                    <mxGeometry x="290" y="313.5" width="190" height="15" as="geometry"/>
                </mxCell>
                <mxCell id="40" value="max neurons :" style="text;html=1;strokeColor=none;fillColor=none;align=left;verticalAlign=middle;whiteSpace=wrap;rounded=0;" vertex="1" parent="1">
                    <mxGeometry x="80" y="346" width="210" height="30" as="geometry"/>
                </mxCell>
                <mxCell id="41" value="&lt;i&gt;&lt;font&gt;100&lt;/font&gt;&lt;/i&gt;" style="rounded=0;whiteSpace=wrap;html=1;fontColor=#000000;" vertex="1" parent="1">
                    <mxGeometry x="290" y="353.5" width="190" height="15" as="geometry"/>
                </mxCell>
            </root>
        </mxGraphModel>
    </diagram>
</mxfile>